<svg xmlns:svg="http://www.w3.org/2000/svg" xmlns="http://www.w3.org/2000/svg" version="1.1" width="600" height="600"><g transform="translate(-1109.4396,-140.20826)"><g transform="matrix(6,0,0,6,5519.4396,140.20826)"><path d="M-635 50C-635 77.6-657.4 100-685 100-712.6 100-735 77.6-735 50-735 22.4-712.6 0-685 0c27.6 0 50 22.4 50 50z" fill="#c9c4be"/></g><g transform="matrix(6,0,0,6,5519.4396,140.20826)"><path d="m-680.1 65.7c0 4 0.7 6.8 2 8.4 1.3 1.6 3.5 2.4 6.6 2.4l0.7-0.1V80h-28.8v-3.6h0.9c3.1 0.1 5.3-0.7 6.6-2.3 1.3-1.6 2-4.4 2-8.3V53.3l-18.3-26.8c-0.7-1-1.4-1.9-2-2.6-0.6-0.7-1.1-1.3-1.6-1.8-0.8-0.7-1.7-1.2-2.6-1.4-0.9-0.3-2.1-0.5-3.5-0.7V16.2H-690v3.6c-2.8 0.3-4.7 0.6-5.7 1.2-1 0.5-1.5 1.5-1.5 2.9 0 0.6 0.1 1.2 0.4 1.9 0.2 0.6 0.6 1.3 1 2l14.2 20.6 10.4-15.2c1-1.4 1.7-2.6 2.2-3.6 0.4-1 0.7-1.9 0.8-2.8 0-0.1 0-0.2 0-0.4 0-0.1 0-0.2 0-0.4 0-1.9-0.5-3.4-1.6-4.3-1.1-0.9-2.9-1.5-5.5-1.8v-3.6h23.1v3.6c-0.7 0.1-1.4 0.3-2.1 0.5-0.6 0.2-1.2 0.5-1.8 0.9-1 0.6-2 1.4-3.1 2.7-1.1 1.2-2.3 2.9-3.8 5.1l-17.1 24.3v12.4h0z" fill="#0d0f0f"/></g></g></svg>
