<svg xmlns:svg="http://www.w3.org/2000/svg" xmlns="http://www.w3.org/2000/svg" version="1.1" width="600" height="600"><g transform="translate(-122.0055,-78.92808)"><g transform="matrix(6,0,0,6,3902.0055,78.92808)"><path d="M-530 50C-530 77.6-552.4 100-580 100-607.6 100-630 77.6-630 50-630 22.4-607.6 0-580 0c27.6 0 50 22.4 50 50z" fill="#c9c4be"/></g><g transform="matrix(6,0,0,6,3902.0055,78.92808)"><path d="m-555.6 80h-53.8v-2.7l42.6-57.2h-19c-3.1 0.1-5.5 0.4-7.2 1-1.7 0.6-3.2 1.7-4.7 3.4-0.1 0.1-0.2 0.3-0.3 0.4-0.1 0.1-0.2 0.3-0.3 0.4-0.2 0.4-0.5 0.7-0.7 1-0.2 0.3-0.4 0.6-0.6 0.9-0.1 0.2-0.2 0.4-0.3 0.6-0.1 0.2-0.2 0.4-0.4 0.6-0.1 0.4-0.3 0.8-0.5 1.2-0.2 0.4-0.4 0.9-0.7 1.4l-3.4-0.1V16.2h51v2.5l-43 57.4h18.6c2.8 0.1 5 0 6.7-0.2 1.7-0.2 3.2-0.6 4.6-1.2 0.2-0.1 0.4-0.1 0.5-0.2 0.2-0.1 0.3-0.1 0.4-0.2 0.9-0.4 1.7-0.9 2.5-1.5 0.8-0.6 1.6-1.2 2.4-2 0.6-0.6 1.1-1.2 1.7-1.8 0.6-0.7 1.2-1.4 1.8-2.2l2.4-3.5h3.6l-4.2 16.6z" fill="#0d0f0f"/></g></g></svg>
